HIERARCHY
ROOT Hips
{
	OFFSET 0.000000 97.167313 0.000000
	CHANNELS 6 Xposition Yposition Zposition Xrotation Yrotation Zrotation
	JOINT Spine
	{
		OFFSET 0.000000 13.784798 0.064400
		CHANNELS 3 Xrotation Yrotation Zrotation
		JOINT Spine1
		{
			OFFSET 0.000000 12.037903 0.404700
			CHANNELS 3 Xrotation Yrotation Zrotation
			JOINT Spine2
			{
				OFFSET 0.000000 17.795601 0.420200
				CHANNELS 3 Xrotation Yrotation Zrotation
				JOINT Neck
				{
					OFFSET 0.000000 39.131302 11.954600
					CHANNELS 3 Xrotation Yrotation Zrotation
					JOINT Head
					{
						OFFSET 0.000000 14.456192 15.627699
						CHANNELS 3 Xrotation Yrotation Zrotation
						JOINT HeadTop_End
						{
							OFFSET 0.000000 15.703506 7.603401
							CHANNELS 3 Xrotation Yrotation Zrotation
							End Site
							{
								OFFSET 0.000000 17.447403 0.000000
							}
						}
					}
				}
				JOINT LeftShoulder
				{
					OFFSET 17.399500 24.608795 1.168800
					CHANNELS 3 Xrotation Yrotation Zrotation
					JOINT LeftArm
					{
						OFFSET 18.980635 5.765305 1.818600
						CHANNELS 3 Xrotation Yrotation Zrotation
						JOINT LeftForeArm
						{
							OFFSET 49.290169 0.000000 0.000000
							CHANNELS 3 Xrotation Yrotation Zrotation
							JOINT LeftHand
							{
								OFFSET 31.562012 0.000000 0.000000
								CHANNELS 3 Xrotation Yrotation Zrotation
								JOINT LeftHandThumb1
								{
									OFFSET 6.133995 -4.388519 7.076070
									CHANNELS 3 Xrotation Yrotation Zrotation
									JOINT LeftHandThumb2
									{
										OFFSET 6.037666 -3.485840 3.485847
										CHANNELS 3 Xrotation Yrotation Zrotation
										JOINT LeftHandThumb3
										{
											OFFSET 6.496506 -3.750763 3.750761
											CHANNELS 3 Xrotation Yrotation Zrotation
											JOINT LeftHandThumb4
											{
												OFFSET 5.616882 -3.242905 3.242910
												CHANNELS 3 Xrotation Yrotation Zrotation
												End Site
												{
													OFFSET -1.254608 7.132141 0.375429
												}
											}
										}
									}
								}
								JOINT LeftHandPinky1
								{
									OFFSET 18.920792 -0.453171 -11.426712
									CHANNELS 3 Xrotation Yrotation Zrotation
									JOINT LeftHandPinky2
									{
										OFFSET 4.919586 0.000000 0.000000
										CHANNELS 3 Xrotation Yrotation Zrotation
										JOINT LeftHandPinky3
										{
											OFFSET 5.233047 0.000000 0.000000
											CHANNELS 3 Xrotation Yrotation Zrotation
											JOINT LeftHandPinky4
											{
												OFFSET 5.571716 0.000000 0.000000
												CHANNELS 3 Xrotation Yrotation Zrotation
												End Site
												{
													OFFSET -3.459808 4.342407 -0.466164
												}
											}
										}
									}
								}
								JOINT LeftHandRing1
								{
									OFFSET 22.726120 -0.094986 -6.500475
									CHANNELS 3 Xrotation Yrotation Zrotation
									JOINT LeftHandRing2
									{
										OFFSET 6.408615 0.000000 0.000000
										CHANNELS 3 Xrotation Yrotation Zrotation
										JOINT LeftHandRing3
										{
											OFFSET 6.150223 0.000000 0.000000
											CHANNELS 3 Xrotation Yrotation Zrotation
											JOINT LeftHandRing4
											{
												OFFSET 6.145386 0.000000 0.000000
												CHANNELS 3 Xrotation Yrotation Zrotation
												End Site
												{
													OFFSET -3.671402 4.923981 -0.202372
												}
											}
										}
									}
								}
								JOINT LeftHandMiddle1
								{
									OFFSET 23.373947 0.000000 0.000001
									CHANNELS 3 Xrotation Yrotation Zrotation
									JOINT LeftHandMiddle2
									{
										OFFSET 6.996567 0.000000 0.000000
										CHANNELS 3 Xrotation Yrotation Zrotation
										JOINT LeftHandMiddle3
										{
											OFFSET 7.015945 0.000000 0.000000
											CHANNELS 3 Xrotation Yrotation Zrotation
											JOINT LeftHandMiddle4
											{
												OFFSET 7.721573 0.000000 0.000000
												CHANNELS 3 Xrotation Yrotation Zrotation
												End Site
												{
													OFFSET -4.651108 6.158463 0.251582
												}
											}
										}
									}
								}
								JOINT LeftHandIndex1
								{
									OFFSET 21.310577 -0.490082 6.209344
									CHANNELS 3 Xrotation Yrotation Zrotation
									JOINT LeftHandIndex2
									{
										OFFSET 7.536453 0.000000 0.000000
										CHANNELS 3 Xrotation Yrotation Zrotation
										JOINT LeftHandIndex3
										{
											OFFSET 7.512344 0.000000 0.000000
											CHANNELS 3 Xrotation Yrotation Zrotation
											JOINT LeftHandIndex4
											{
												OFFSET 10.212402 0.000000 0.000001
												CHANNELS 3 Xrotation Yrotation Zrotation
												End Site
												{
													OFFSET -5.180801 8.690506 1.388433
												}
											}
										}
									}
								}
							}
						}
					}
				}
				JOINT RightShoulder
				{
					OFFSET -17.399500 24.608795 1.168800
					CHANNELS 3 Xrotation Yrotation Zrotation
					JOINT RightArm
					{
						OFFSET -18.980635 5.765305 1.818600
						CHANNELS 3 Xrotation Yrotation Zrotation
						JOINT RightForeArm
						{
							OFFSET -49.290169 0.000000 0.000000
							CHANNELS 3 Xrotation Yrotation Zrotation
							JOINT RightHand
							{
								OFFSET -31.562012 0.000000 0.000000
								CHANNELS 3 Xrotation Yrotation Zrotation
								JOINT RightHandThumb1
								{
									OFFSET -6.133995 -4.388519 7.076070
									CHANNELS 3 Xrotation Yrotation Zrotation
									JOINT RightHandThumb2
									{
										OFFSET -6.037666 -3.485840 3.485847
										CHANNELS 3 Xrotation Yrotation Zrotation
										JOINT RightHandThumb3
										{
											OFFSET -6.496506 -3.750763 3.750761
											CHANNELS 3 Xrotation Yrotation Zrotation
											JOINT RightHandThumb4
											{
												OFFSET -5.616882 -3.242905 3.242910
												CHANNELS 3 Xrotation Yrotation Zrotation
												End Site
												{
													OFFSET 1.254608 7.132141 0.375429
												}
											}
										}
									}
								}
								JOINT RightHandIndex1
								{
									OFFSET -21.310577 -0.490082 6.209344
									CHANNELS 3 Xrotation Yrotation Zrotation
									JOINT RightHandIndex2
									{
										OFFSET -7.536453 0.000000 0.000000
										CHANNELS 3 Xrotation Yrotation Zrotation
										JOINT RightHandIndex3
										{
											OFFSET -7.512344 0.000000 0.000000
											CHANNELS 3 Xrotation Yrotation Zrotation
											JOINT RightHandIndex4
											{
												OFFSET -10.212402 0.000000 0.000001
												CHANNELS 3 Xrotation Yrotation Zrotation
												End Site
												{
													OFFSET 5.180801 8.690506 1.388433
												}
											}
										}
									}
								}
								JOINT RightHandMiddle1
								{
									OFFSET -23.373947 0.000000 0.000001
									CHANNELS 3 Xrotation Yrotation Zrotation
									JOINT RightHandMiddle2
									{
										OFFSET -6.996567 0.000000 0.000000
										CHANNELS 3 Xrotation Yrotation Zrotation
										JOINT RightHandMiddle3
										{
											OFFSET -7.015945 0.000000 0.000000
											CHANNELS 3 Xrotation Yrotation Zrotation
											JOINT RightHandMiddle4
											{
												OFFSET -7.721573 0.000000 0.000000
												CHANNELS 3 Xrotation Yrotation Zrotation
												End Site
												{
													OFFSET 4.651108 6.158463 0.251582
												}
											}
										}
									}
								}
								JOINT RightHandRing1
								{
									OFFSET -22.726120 -0.094986 -6.500475
									CHANNELS 3 Xrotation Yrotation Zrotation
									JOINT RightHandRing2
									{
										OFFSET -6.408615 0.000000 0.000000
										CHANNELS 3 Xrotation Yrotation Zrotation
										JOINT RightHandRing3
										{
											OFFSET -6.150223 0.000000 0.000000
											CHANNELS 3 Xrotation Yrotation Zrotation
											JOINT RightHandRing4
											{
												OFFSET -6.145386 0.000000 0.000000
												CHANNELS 3 Xrotation Yrotation Zrotation
												End Site
												{
													OFFSET 3.671402 4.923981 -0.202372
												}
											}
										}
									}
								}
								JOINT RightHandPinky1
								{
									OFFSET -18.920792 -0.453171 -11.426712
									CHANNELS 3 Xrotation Yrotation Zrotation
									JOINT RightHandPinky2
									{
										OFFSET -4.919586 0.000000 0.000000
										CHANNELS 3 Xrotation Yrotation Zrotation
										JOINT RightHandPinky3
										{
											OFFSET -5.233047 0.000000 0.000000
											CHANNELS 3 Xrotation Yrotation Zrotation
											JOINT RightHandPinky4
											{
												OFFSET -5.571716 0.000000 0.000000
												CHANNELS 3 Xrotation Yrotation Zrotation
												End Site
												{
													OFFSET 3.459808 4.342407 -0.466164
												}
											}
										}
									}
								}
							}
						}
					}
				}
			}
		}
	}
	JOINT LeftUpLeg
	{
		OFFSET 19.899099 -7.885101 -3.429500
		CHANNELS 3 Xrotation Yrotation Zrotation
		JOINT LeftLeg
		{
			OFFSET 1.745560 -36.997807 10.304700
			CHANNELS 3 Xrotation Yrotation Zrotation
			JOINT LeftFoot
			{
				OFFSET -1.745558 -29.803308 -13.615400
				CHANNELS 3 Xrotation Yrotation Zrotation
				JOINT LeftToeBase
				{
					OFFSET 1.181900 -18.539904 15.226099
					CHANNELS 3 Xrotation Yrotation Zrotation
					JOINT LeftToe_End
					{
						OFFSET -0.863701 1.402801 16.534700
						CHANNELS 3 Xrotation Yrotation Zrotation
						End Site
						{
							OFFSET 0.000000 16.616566 0.000000
						}
					}
				}
			}
		}
	}
	JOINT RightUpLeg
	{
		OFFSET -19.899099 -7.885101 -3.429500
		CHANNELS 3 Xrotation Yrotation Zrotation
		JOINT RightLeg
		{
			OFFSET -1.745560 -36.997807 10.304700
			CHANNELS 3 Xrotation Yrotation Zrotation
			JOINT RightFoot
			{
				OFFSET 1.745558 -29.803308 -13.615400
				CHANNELS 3 Xrotation Yrotation Zrotation
				JOINT RightToeBase
				{
					OFFSET -1.181900 -18.539904 15.226099
					CHANNELS 3 Xrotation Yrotation Zrotation
					JOINT RightToe_End
					{
						OFFSET 0.863701 1.402801 16.534700
						CHANNELS 3 Xrotation Yrotation Zrotation
						End Site
						{
							OFFSET 0.000000 16.616566 0.000000
						}
					}
				}
			}
		}
	}
}
MOTION
Frames: 4
Frame Time: 0.033333
-7.087705 80.576462 -4.014307 11.071760 8.636026 5.071520 11.640265 -4.284564 -8.357717 -4.103978 -1.050075 1.536485 -4.119663 -1.492075 -1.442118 3.201715 -1.657707 1.602407 -22.111361 -10.859109 6.846664 0.000000 -0.000001 0.000000 6.602543 -15.131623 -4.562343 3.601570 -40.785512 -33.079866 0.000001 -9.799802 -0.000002 -24.598697 -17.372871 -2.457819 -0.599319 -3.966430 -9.364565 7.265224 5.675891 -1.362747 -1.454537 -9.642083 3.552892 -0.000000 0.000002 -0.000003 -8.415099 12.207555 -30.059683 0.337534 1.961586 -19.524944 0.322579 1.918936 -19.083506 0.000003 0.000001 0.000001 0.788079 5.841542 -14.812326 0.755063 2.878856 -29.388057 0.083290 0.985346 -9.661998 -0.000000 -0.000003 0.000003 0.178351 3.513377 -10.884307 0.231693 1.632842 -16.151130 0.076885 0.947026 -9.282874 0.000002 0.000003 0.000006 0.010743 1.572893 -3.257135 0.029282 0.585681 -5.724989 0.000036 -0.018980 0.185297 -0.000006 -0.000003 0.000001 6.942803 7.869408 28.858977 -0.728550 9.011747 19.991626 0.000008 14.693040 -0.000003 -6.174770 17.365126 12.292283 -4.661618 5.581551 10.433803 18.708185 -18.237143 7.948281 4.960553 -41.995807 3.263009 0.000002 0.000001 -0.000000 3.776973 -12.233425 22.141749 0.073966 -0.827593 10.213920 0.062709 -0.762527 9.403199 0.000001 -0.000001 0.000001 6.347490 -15.812839 26.586235 0.548079 -2.193812 28.050723 0.260917 -1.538471 19.250338 0.000002 0.000000 -0.000001 5.596865 -14.753518 25.640006 1.267630 -3.195643 43.265222 0.211132 -1.387710 17.299945 -0.000001 0.000002 0.000000 -7.723523 -18.865732 35.161104 0.937584 -2.804451 36.965452 0.506568 -2.114132 26.946411 0.000002 0.000000 0.000004 -40.661964 9.097768 5.805750 44.789252 0.472227 -1.560300 -10.659224 -2.370967 -7.308194 -1.907735 -0.031430 1.742410 -0.000000 0.000000 -0.000000 -37.735528 -26.525958 -30.886645 51.498117 1.305985 3.437447 -29.155465 -10.962014 7.796281 -0.252117 -0.000008 0.000001 -0.000000 0.000002 0.000000 
-7.061239 81.825607 -3.754030 10.347404 8.178048 5.455486 9.492338 -4.749673 -8.842859 -4.355815 -1.179851 1.486488 -4.371536 -1.618885 -1.491416 3.405581 -1.636632 1.287718 -19.365891 -10.538708 7.007903 0.000000 0.000001 -0.000000 6.600087 -14.634722 -4.942760 5.871064 -36.942874 -34.403215 0.000009 -7.919152 0.000003 -17.407447 -15.239161 -6.199802 -2.488175 -3.856361 -9.811540 5.014351 6.629459 0.707400 -5.732676 -10.478276 8.027351 0.000003 0.000005 -0.000003 -11.083956 10.446049 -28.403072 0.414783 2.167001 -21.669170 0.443151 2.236999 -22.407233 0.000001 0.000003 0.000001 0.371964 4.276326 -15.117206 0.760642 2.888694 -29.498784 0.119639 1.179131 -11.586787 0.000002 0.000001 0.000002 0.303981 4.113240 -11.780627 0.296279 1.841144 -18.281215 0.140916 1.278511 -12.579115 -0.000000 -0.000001 0.000004 0.084346 2.709857 -3.429849 0.029387 0.586739 -5.735231 0.012958 0.389881 -3.807542 -0.000002 -0.000000 -0.000001 7.008918 7.594713 29.280932 -3.727248 7.296946 19.697009 0.000003 8.909485 0.000003 -3.669923 13.578729 19.513835 -5.544873 5.277557 10.414958 13.613930 -10.618598 2.774528 0.385434 -35.344515 -5.587803 0.000001 0.000001 -0.000000 4.260610 -12.078467 25.465822 0.127591 -1.083795 13.428359 0.098812 -0.955263 11.810936 -0.000000 -0.000001 -0.000001 6.083282 -13.577373 30.838987 0.664116 -2.398758 30.946228 0.353990 -1.782667 22.461110 -0.000000 -0.000001 -0.000007 3.542037 -9.877527 28.356157 1.386215 -3.316934 45.352675 0.286753 -1.610494 20.190128 0.000001 -0.000003 0.000002 -10.733411 -14.750608 34.352696 0.981784 -2.862170 37.859609 0.558426 -2.213114 28.319904 0.000001 -0.000003 0.000004 -35.869698 8.441893 3.956913 44.237827 0.489919 -1.554465 -12.498520 -2.786780 -8.333328 -3.117692 -0.066160 2.611192 0.000000 0.000000 0.000000 -35.085592 -25.224087 -29.069442 48.935922 1.054901 3.022732 -27.725712 -12.840779 7.934638 -0.252129 0.000001 -0.000002 -0.000000 -0.000002 -0.000000 
-7.060422 82.633316 -3.408813 9.989787 7.392718 6.375440 6.904882 -5.000383 -9.373450 -4.629588 -1.243924 1.250477 -4.645065 -1.675572 -1.728574 3.600415 -1.585845 0.641536 -17.357177 -9.270736 5.846054 0.000000 0.000001 -0.000000 6.693014 -13.052019 -4.889058 10.175486 -32.419995 -35.209267 -0.000002 -11.477168 0.000015 -10.680276 -13.426794 -9.602200 -4.565621 -3.710161 -10.312770 4.948047 7.873057 0.921498 -6.380112 -7.674589 9.575763 0.000001 -0.000001 -0.000002 -14.291856 7.768765 -27.541353 0.536136 2.450243 -24.681083 0.640410 2.665271 -27.017385 0.000000 0.000004 -0.000002 -0.321367 1.979462 -17.105888 0.807265 2.969487 -30.410840 0.182833 1.453622 -14.337158 0.000001 -0.000001 0.000001 0.307333 4.042094 -14.769500 0.407687 2.149065 -21.480778 0.251723 1.700480 -16.840050 0.000002 -0.000000 0.000004 0.963100 4.116312 -6.148976 0.092163 1.036114 -10.165231 0.065678 0.875640 -8.577388 -0.000000 -0.000000 -0.000001 7.113836 7.240977 28.755349 -4.234539 4.632264 20.337831 0.000001 7.698348 0.000018 -1.706432 11.227118 23.140999 -6.676030 4.894888 10.385608 15.698034 -17.482938 3.161894 -0.720483 -38.313854 -7.971685 -0.000001 -0.000001 0.000002 4.402757 -11.876877 26.935008 0.230251 -1.447665 18.073010 0.154540 -1.191003 14.786065 -0.000003 -0.000003 -0.000001 4.606989 -10.520586 33.488885 0.817495 -2.637518 34.436144 0.484559 -2.070288 26.343584 0.000001 0.000003 -0.000008 0.910911 -4.998805 31.751490 1.474806 -3.402008 46.864377 0.385545 -1.857098 23.454574 -0.000001 0.000000 -0.000005 -14.008411 -10.299763 35.868096 1.019117 -2.909499 38.601104 0.599876 -2.288305 29.375342 0.000000 0.000001 0.000002 -31.262356 6.289271 -0.177303 41.900082 0.749950 -1.298628 -15.135402 -4.926396 -6.436312 -2.837087 -0.050905 2.296054 0.000000 0.000001 -0.000000 -33.810440 -23.425391 -28.543553 47.672477 0.761293 2.762721 -26.881367 -13.867885 8.248998 -0.252131 -0.000019 0.000001 -0.000000 -0.000002 -0.000000 
-6.997171 83.304420 -2.916941 10.111118 6.089482 7.037512 4.150342 -4.421569 -9.839049 -4.953198 -1.093539 1.060777 -4.968967 -1.521270 -1.922081 3.853592 -1.543964 0.129737 -15.802794 -8.049152 4.445462 -0.000000 -0.000000 -0.000000 6.786331 -11.383688 -4.886321 14.988336 -26.782078 -36.371085 0.000002 -18.161628 -0.000009 -7.336248 -11.922623 -12.586761 -6.727176 -3.514677 -10.830689 4.840309 9.536706 1.139309 -6.322425 -3.883649 11.115448 0.000002 -0.000000 -0.000001 -17.055968 4.018404 -28.328816 0.724420 2.823795 -28.771844 0.975305 3.238415 -33.513754 0.000002 -0.000001 -0.000004 -1.553770 -1.018741 -20.379186 0.958053 3.212224 -33.206805 0.288656 1.817961 -18.042882 -0.000002 -0.000001 0.000002 0.313525 4.064110 -18.879271 0.610903 2.606630 -26.375595 0.440131 2.229718 -22.330325 -0.000000 -0.000001 0.000001 2.122798 5.735595 -9.708077 0.228012 1.620080 -16.021541 0.186830 1.469148 -14.493636 -0.000003 0.000001 -0.000001 7.334534 6.605945 27.727462 -2.543392 1.491135 21.894407 0.000006 9.794931 0.000001 -2.811607 10.630337 22.748234 -7.994365 4.457935 10.344113 19.414869 -26.633332 5.059767 -1.528114 -42.122709 -9.268245 0.000003 0.000002 0.000002 4.926471 -12.107746 29.299029 0.338279 -1.744165 21.950319 0.225171 -1.432016 17.870951 0.000003 -0.000001 -0.000001 3.677020 -8.622415 37.039873 0.994663 -2.878648 38.116888 0.644151 -2.365171 30.466042 0.000001 -0.000000 -0.000006 -1.986230 -1.074980 36.650618 1.614416 -3.527407 49.174261 0.501178 -2.103500 26.799909 -0.000000 0.000001 -0.000002 -17.614470 -6.131438 38.206579 1.113026 -3.023229 40.415592 0.631217 -2.343070 30.151085 -0.000000 -0.000002 0.000002 -27.156820 5.391429 -3.113275 37.235548 1.067671 -0.882374 -17.305353 -5.175989 -2.161583 -1.527994 0.008578 -0.572203 -0.000000 0.000000 -0.000000 -33.295099 -22.062925 -28.241808 46.407249 0.427865 2.574083 -25.900110 -13.769792 8.628334 -0.252129 -0.000001 -0.000002 -0.000000 0.000001 0.000000 
